# File created by Blade
# Date/Time:  Wed Jan 28 16:58:26 2015
#---------------------------------------------------------
:version 1.10
:name HOM
:units
  mass 1.0
  length 1.000000
  angle deg
:documentation
     Acclaim Skeleton File
:root
   axis xyz
   order TX TY TZ RX RY RZ
   position 0.000000 0.000000 0.000000
   orientation 0 0 0
:bonedata
   begin
      id 1
      name Spine_dum
      direction 0.000000 1.000000 0.000000
      length 9.621153
      axis 0.0 0.0 0.0 xyz
   end
   begin
      id 2
      name LeftUpLeg_dum
      direction 1.000000 0.000000 0.000000
      length 2.700595
      axis 0.0 0.0 0.0 xyz
   end
   begin
      id 3
      name RightUpLeg_dum
      direction -1.000000 0.000000 0.000000
      length 2.700595
      axis 0.0 0.0 0.0 xyz
   end
   begin
      id 4
      name Spine
      direction 0.000000 1.000000 0.000000
      length 0.000000
      axis 0.0 0.0 0.0 xyz
      dof rx ry rz
   end
   begin
      id 5
      name Spine_dum1
      direction 0.000000 1.000000 0.000000
      length 12.771951
      axis 0.0 0.0 0.0 xyz
   end
   begin
      id 6
      name Spine_dum2
      direction 0.000000 1.000000 0.000000
      length 7.400569
      axis 0.0 0.0 0.0 xyz
   end
   begin
      id 7
      name Spine_dum3
      direction 0.000000 1.000000 0.000000
      length 7.400569
      axis 0.0 0.0 0.0 xyz
   end
   begin
      id 8
      name Head
      direction 0.000000 1.000000 0.000000
      length 4.527550
      axis 0.0 0.0 0.0 xyz
      dof rx ry rz
   end
   begin
      id 9
      name LeftShoulder
      direction 1.000000 0.000000 0.000000
      length 8.349299
      axis 0.0 0.0 -90.0 xyz
      dof rx ry rz
   end
   begin
      id 10
      name LeftArm
      direction 1.000000 0.000000 0.000000
      length 11.334839
      axis 0.0 0.0 -90.0 xyz
      dof rx ry rz
   end
   begin
      id 11
      name LeftForeArm
      direction 1.000000 0.000000 0.000000
      length 9.694182
      axis 0.0 0.0 -90.0 xyz
      dof ry rz rx
   end
   begin
      id 12
      name LeftHand
      direction 0.000000 0.000000 0.000000
      length 0.000000
      axis 0.0 0.0 -90.0 xyz
      dof rx ry rz
   end
   begin
      id 13
      name LeftHand_dum1
      direction 0.000000 0.000000 0.000000
      length 0.000000
      axis 0.0 0.0 -90.0 xyz
   end
   begin
      id 14
      name LeftHand_dum2
      direction 1.000000 0.000000 0.000000
      length 3.937000
      axis 0.0 0.0 -90.0 xyz
   end
   begin
      id 15
      name LeftHandThumb1
      direction 0.000000 0.000000 1.000000
      length 3.937000
      axis 0.0 0.0 -90.0 xyz
      dof rx rz ry
   end
   begin
      id 16
      name RightShoulder
      direction -1.000000 0.000000 0.000000
      length 8.349299
      axis 0.0 0.0 90.0 xyz
      dof rx ry rz
   end
   begin
      id 17
      name RightArm
      direction -1.000000 0.000000 0.000000
      length 11.334839
      axis 0.0 0.0 90.0 xyz
      dof rx ry rz
   end
   begin
      id 18
      name RightForeArm
      direction -1.000000 0.000000 0.000000
      length 9.694182
      axis 0.0 0.0 90.0 xyz
      dof ry rz rx
   end
   begin
      id 19
      name RightHand
      direction 0.000000 0.000000 0.000000
      length 0.000000
      axis 0.0 0.0 90.0 xyz
      dof rx ry rz
   end
   begin
      id 20
      name RightHand_dum1
      direction 0.000000 0.000000 0.000000
      length 0.000000
      axis 0.0 0.0 90.0 xyz
   end
   begin
      id 21
      name RightHand_dum2
      direction -1.000000 0.000000 0.000000
      length 3.937000
      axis 0.0 0.0 90.0 xyz
   end
   begin
      id 22
      name RightHandThumb1
      direction 0.000000 0.000000 1.000000
      length 3.937000
      axis 0.0 0.0 90.0 xyz
      dof rx rz ry
   end
   begin
      id 23
      name LeftUpLeg
      direction 0.000000 -1.000000 0.000000
      length 16.757176
      axis 0.0 0.0 0.0 xyz
      dof rx ry rz
   end
   begin
      id 24
      name LeftLeg
      direction 0.000000 -1.000000 0.000000
      length 16.759153
      axis 0.0 0.0 0.0 xyz
      dof rx ry rz
   end
   begin
      id 25
      name LeftFoot
      direction 0.000000 -0.258819 0.965926
      length 5.841289
      axis 15.0 0.0 0.0 xyz
      dof rx ry rz
   end
   begin
      id 26
      name LeftToeBase
      direction 0.000000 0.000000 1.000000
      length 2.952750
      axis 0.0 0.0 0.0 xyz
      dof rx ry rz
   end
   begin
      id 27
      name RightUpLeg
      direction 0.000000 -1.000000 0.000000
      length 16.757176
      axis 0.0 0.0 0.0 xyz
      dof rx ry rz
   end
   begin
      id 28
      name RightLeg
      direction 0.000000 -1.000000 0.000000
      length 16.759153
      axis 0.0 0.0 0.0 xyz
      dof rx ry rz
   end
   begin
      id 29
      name RightFoot
      direction 0.000000 -0.258819 0.965926
      length 5.841289
      axis 15.0 0.0 0.0 xyz
      dof rx ry rz
   end
   begin
      id 30
      name RightToeBase
      direction 0.000000 0.000000 1.000000
      length 2.952750
      axis 0.0 0.0 0.0 xyz
      dof rx ry rz
   end
:hierarchy
   begin
      root Spine_dum LeftUpLeg_dum RightUpLeg_dum
      Spine_dum Spine
      LeftUpLeg_dum LeftUpLeg
      RightUpLeg_dum RightUpLeg
      Spine Spine_dum1 Spine_dum2 Spine_dum3
      Spine_dum1 Head
      Spine_dum2 LeftShoulder
      Spine_dum3 RightShoulder
      LeftShoulder LeftArm
      LeftArm LeftForeArm
      LeftForeArm LeftHand
      LeftHand LeftHand_dum1 LeftHand_dum2
      LeftHand_dum1 LeftHandThumb1
      RightShoulder RightArm
      RightArm RightForeArm
      RightForeArm RightHand
      RightHand RightHand_dum1 RightHand_dum2
      RightHand_dum1 RightHandThumb1
      LeftUpLeg LeftLeg
      LeftLeg LeftFoot
      LeftFoot LeftToeBase
      RightUpLeg RightLeg
      RightLeg RightFoot
      RightFoot RightToeBase
   end

# File created by Blade
# Date/Time:  Wed Jan 28 16:58:32 2015
# Frame Rate: 120.000 fps
#------------------------------------------------------
:FULLY-SPECIFIED
:DEGREES
1
root 14.204626 35.023638 -13.961790 172.202680 5.542319 -179.561833
Spine 19.406319 5.048578 -1.847523
Head 19.427772 17.882690 18.849898
LeftShoulder -9.725444 8.863309 30.537605
LeftArm 18.422088 -31.947406 -38.787984
LeftForeArm 16.172947 -0.000000 6.444666
LeftHand -1.593379 -0.000000 3.719306
LeftHandThumb1 -26.253704 0.000000 33.147579
RightShoulder -25.563299 -5.888779 -24.312399
RightArm 31.715264 25.490949 47.092489
RightForeArm -10.776623 -0.000000 4.158076
RightHand -15.961882 -0.000000 12.447369
RightHandThumb1 -24.326973 -0.000000 -32.862282
LeftUpLeg 12.226015 15.693268 6.434924
LeftLeg 3.790817 -0.000000 -0.000000
LeftFoot -17.501204 12.157551 -8.609367
LeftToeBase 15.615684 -0.000000 -0.000000
RightUpLeg 9.014076 -11.737394 -6.966349
RightLeg 4.329972 -0.000000 -0.000000
RightFoot -11.328267 -13.461532 10.622472
RightToeBase 6.040080 -0.000000 -0.000000
2
root 14.205394 35.022978 -13.962778 172.201118 5.544625 -179.564895
Spine 19.405704 5.040457 -1.850639
Head 19.471513 17.921534 18.850784
LeftShoulder -9.734996 8.834682 30.552457
LeftArm 18.399656 -31.926074 -38.811870
LeftForeArm 16.190709 -0.000000 6.498410
LeftHand -2.002051 -0.000000 3.773979
LeftHandThumb1 -26.253704 0.000000 33.147579
RightShoulder -25.547784 -5.899780 -24.327535
RightArm 31.737232 25.493452 47.115590
RightForeArm -10.786881 -0.000000 4.125340
RightHand -15.955988 -0.000000 12.409622
RightHandThumb1 -24.326973 -0.000000 -32.862282
LeftUpLeg 12.222966 15.715254 6.441235
LeftLeg 3.807224 -0.000000 -0.000000
LeftFoot -17.498715 12.137553 -8.579755
LeftToeBase 15.605043 -0.000000 -0.000000
RightUpLeg 9.018565 -11.749694 -6.967936
RightLeg 4.324006 -0.000000 -0.000000
RightFoot -11.331552 -13.446508 10.561566
RightToeBase 6.113735 -0.000000 -0.000000
3
root 14.204268 35.023456 -13.963325 172.203896 5.560036 -179.565811
Spine 19.395756 5.050440 -1.845146
Head 19.518081 17.954690 18.879052
LeftShoulder -9.719223 8.841480 30.532650
LeftArm 18.383158 -31.956245 -38.783393
LeftForeArm 16.200850 -0.000000 6.478252
LeftHand -1.715240 -0.000000 3.743219
LeftHandThumb1 -26.253704 0.000000 33.147579
RightShoulder -25.528518 -5.902130 -24.327350
RightArm 31.737339 25.512365 47.113847
RightForeArm -10.809386 -0.000000 4.124941
RightHand -15.943337 -0.000000 12.436341
RightHandThumb1 -24.326973 -0.000000 -32.862282
LeftUpLeg 12.220781 15.738787 6.441970
LeftLeg 3.812091 -0.000000 -0.000000
LeftFoot -17.505122 12.133409 -8.598587
LeftToeBase 15.608310 -0.000000 -0.000000
RightUpLeg 9.013850 -11.731731 -6.968100
RightLeg 4.324393 -0.000000 -0.000000
RightFoot -11.321201 -13.436584 10.571011
RightToeBase 6.064234 -0.000000 -0.000000
4
root 14.203657 35.022987 -13.964520 172.198674 5.566675 -179.566940
Spine 19.394759 5.057055 -1.830368
Head 19.576354 17.969887 18.873631
LeftShoulder -9.696607 8.834541 30.516440
LeftArm 18.369004 -31.984747 -38.773221
LeftForeArm 16.198902 0.000000 6.469967
LeftHand -1.638056 -0.000000 3.734722
LeftHandThumb1 -26.253704 0.000000 33.147579
RightShoulder -25.516657 -5.916131 -24.341740
RightArm 31.739737 25.532667 47.122909
RightForeArm -10.840845 0.000000 4.132419
RightHand -15.920905 -0.000000 12.482558
RightHandThumb1 -24.326973 -0.000000 -32.862282
LeftUpLeg 12.227314 15.741405 6.440915
LeftLeg 3.815556 -0.000000 -0.000000
LeftFoot -17.506258 12.136833 -8.594742
LeftToeBase 15.589523 -0.000000 -0.000000
RightUpLeg 9.023056 -11.741710 -6.974854
RightLeg 4.318502 -0.000000 -0.000000
RightFoot -11.325836 -13.421599 10.563352
RightToeBase 6.083170 -0.000000 -0.000000
5
root 14.204602 35.023217 -13.965591 172.198313 5.568761 -179.567320
Spine 19.388348 5.054927 -1.833503
Head 19.613657 17.998351 18.882439
LeftShoulder -9.696672 8.823078 30.519409
LeftArm 18.363739 -31.997231 -38.783164
LeftForeArm 16.206272 -0.000000 6.477814
LeftHand -1.649941 -0.000000 3.739860
LeftHandThumb1 -26.253704 0.000000 33.147579
RightShoulder -25.497427 -5.924310 -24.334576
RightArm 31.736058 25.533539 47.115761
RightForeArm -10.824314 -0.000000 4.147487
RightHand -15.864627 -0.000000 12.502206
RightHandThumb1 -24.326973 -0.000000 -32.862282
LeftUpLeg 12.227198 15.733855 6.440705
LeftLeg 3.820555 -0.000000 -0.000000
LeftFoot -17.509770 12.148699 -8.589765
LeftToeBase 15.606872 -0.000000 -0.000000
RightUpLeg 9.023504 -11.753662 -6.976540
RightLeg 4.322310 -0.000000 -0.000000
RightFoot -11.327770 -13.398859 10.586196
RightToeBase 6.067616 -0.000000 -0.000000
6
root 14.205432 35.023200 -13.966008 172.200251 5.570234 -179.564065
Spine 19.381996 5.052363 -1.829949
Head 19.657276 18.053342 18.887834
LeftShoulder -9.698503 8.814433 30.525855
LeftArm 18.385811 -32.086795 -38.841121
LeftForeArm 16.285145 -0.000000 6.483776
LeftHand -1.639729 -0.000000 3.729048
LeftHandThumb1 -26.253704 0.000000 33.147579
RightShoulder -25.475272 -5.915555 -24.333806
RightArm 31.715719 25.530174 47.093360
RightForeArm -10.818618 -0.000000 4.146270
RightHand -15.779768 -0.000000 12.541664
RightHandThumb1 -24.326973 -0.000000 -32.862282
LeftUpLeg 12.227706 15.712833 6.440111
LeftLeg 3.816953 -0.000000 -0.000000
LeftFoot -17.511904 12.163944 -8.595334
LeftToeBase 15.619814 -0.000000 -0.000000
RightUpLeg 9.019419 -11.748510 -6.968024
RightLeg 4.326475 -0.000000 -0.000000
RightFoot -11.330346 -13.413671 10.565705
RightToeBase 6.101121 -0.000000 -0.000000
7
root 14.205140 35.023343 -13.966375 172.200074 5.573016 -179.565981
Spine 19.385225 5.060879 -1.827247
Head 19.673638 18.078307 18.886996
LeftShoulder -9.702727 8.797191 30.530518
LeftArm 18.393892 -32.086603 -38.868028
LeftForeArm 16.270119 -0.000000 6.499036
LeftHand -1.619425 0.000000 3.749474
LeftHandThumb1 -26.253704 0.000000 33.147579
RightShoulder -25.469175 -5.896765 -24.340439
RightArm 31.698366 25.510895 47.075845
RightForeArm -10.779131 -0.000000 4.143653
RightHand -15.738727 0.000000 12.551183
RightHandThumb1 -24.326973 -0.000000 -32.862282
LeftUpLeg 12.225793 15.722890 6.440649
LeftLeg 3.823921 -0.000000 -0.000000
LeftFoot -17.513723 12.152345 -8.609063
LeftToeBase 15.594981 -0.000000 -0.000000
RightUpLeg 9.017249 -11.746060 -6.969600
RightLeg 4.329475 -0.000000 -0.000000
RightFoot -11.330150 -13.416027 10.563340
RightToeBase 6.102322 -0.000000 -0.000000
